REM DIRINDEX 1\2,1\3,1\4,1\5,1\6
REM DIRNAME folder01,folder02,folder03,folder04,folder05,folder06
TITLE ""
FILE "DISC2Track27.mp3" MP3
  TRACK 01 AUDIO
    TITLE "0:"
    INDEX 01 00:00:00
  TRACK 02 AUDIO
    TITLE "3:cjc129_1780"
    INDEX 01 00:00:05
  TRACK 03 AUDIO
    TITLE "0:"
    INDEX 01 00:01:17
  TRACK 04 AUDIO
    TITLE "5:cjc129_1781"
    INDEX 01 00:02:63
  TRACK 05 AUDIO
    TITLE "0:"
    INDEX 01 00:06:69
  TRACK 06 AUDIO
    TITLE "4:cjc129_1782"
    INDEX 01 00:07:58
  TRACK 07 AUDIO
    TITLE "0:"
    INDEX 01 00:08:70
  TRACK 08 AUDIO
    TITLE "6:cjc129_1783"
    INDEX 01 00:09:28
  TRACK 09 AUDIO
    TITLE "0:"
    INDEX 01 00:13:71
  TRACK 10 AUDIO
    TITLE "3:cjc129_1784"
    INDEX 01 00:15:46
  TRACK 11 AUDIO
    TITLE "0:"
    INDEX 01 00:16:57
  TRACK 12 AUDIO
    TITLE "5:cjc129_1785"
    INDEX 01 00:18:15
  TRACK 13 AUDIO
    TITLE "0:"
    INDEX 01 00:22:68
  TRACK 14 AUDIO
    TITLE "4:cjc129_1786"
    INDEX 01 00:23:59
  TRACK 15 AUDIO
    TITLE "0:"
    INDEX 01 00:24:69
  TRACK 16 AUDIO
    TITLE "6:cjc129_1787"
    INDEX 01 00:25:27
  TRACK 17 AUDIO
    TITLE "0:"
    INDEX 01 00:28:53
  TRACK 18 AUDIO
    TITLE "3:cjc129_1788"
    INDEX 01 00:30:28
  TRACK 19 AUDIO
    TITLE "0:"
    INDEX 01 00:32:01
  TRACK 20 AUDIO
    TITLE "5:cjc129_1789"
    INDEX 01 00:33:46
  TRACK 21 AUDIO
    TITLE "0:"
    INDEX 01 00:37:57
  TRACK 22 AUDIO
    TITLE "4:cjc129_1790"
    INDEX 01 00:38:47
  TRACK 23 AUDIO
    TITLE "0:"
    INDEX 01 00:40:19
  TRACK 24 AUDIO
    TITLE "6:cjc129_1791"
    INDEX 01 00:40:58
  TRACK 25 AUDIO
    TITLE "0:"
    INDEX 01 00:45:22
  TRACK 26 AUDIO
    TITLE "3:cjc129_1792"
    INDEX 01 00:46:72
  TRACK 27 AUDIO
    TITLE "0:"
    INDEX 01 00:48:44
  TRACK 28 AUDIO
    TITLE "5:cjc129_1793"
    INDEX 01 00:50:03
  TRACK 29 AUDIO
    TITLE "0:"
    INDEX 01 00:52:14
  TRACK 30 AUDIO
    TITLE "4:cjc129_1794"
    INDEX 01 00:53:06
  TRACK 31 AUDIO
    TITLE "0:"
    INDEX 01 00:54:56
  TRACK 32 AUDIO
    TITLE "6:cjc129_1795"
    INDEX 01 00:55:10
  TRACK 33 AUDIO
    TITLE "0:"
    INDEX 01 01:00:43
  TRACK 34 AUDIO
    TITLE "3:cjc129_1796"
    INDEX 01 01:02:22
  TRACK 35 AUDIO
    TITLE "0:"
    INDEX 01 01:03:31
  TRACK 36 AUDIO
    TITLE "5:cjc129_1797"
    INDEX 01 01:05:05
  TRACK 37 AUDIO
    TITLE "0:"
    INDEX 01 01:08:46
  TRACK 38 AUDIO
    TITLE "4:cjc129_1798"
    INDEX 01 01:09:36
  TRACK 39 AUDIO
    TITLE "0:"
    INDEX 01 01:10:47
  TRACK 40 AUDIO
    TITLE "6:cjc129_1799"
    INDEX 01 01:11:03
  TRACK 41 AUDIO
    TITLE "0:"
    INDEX 01 01:16:16
  TRACK 42 AUDIO
    TITLE "3:cjc129_1800"
    INDEX 01 01:17:67
  TRACK 43 AUDIO
    TITLE "0:"
    INDEX 01 01:19:03
  TRACK 44 AUDIO
    TITLE "5:cjc129_1801"
    INDEX 01 01:20:32
  TRACK 45 AUDIO
    TITLE "0:"
    INDEX 01 01:22:37
  TRACK 46 AUDIO
    TITLE "4:cjc129_1802"
    INDEX 01 01:23:28
  TRACK 47 AUDIO
    TITLE "0:"
    INDEX 01 01:24:39
  TRACK 48 AUDIO
    TITLE "6:cjc129_1803"
    INDEX 01 01:24:71
  TRACK 49 AUDIO
    TITLE "0:"
    INDEX 01 01:28:67
  TRACK 50 AUDIO
    TITLE "3:cjc129_1804"
    INDEX 01 01:30:44
  TRACK 51 AUDIO
    TITLE "0:"
    INDEX 01 01:31:67
  TRACK 52 AUDIO
    TITLE "5:cjc129_1805"
    INDEX 01 01:33:40
  TRACK 53 AUDIO
    TITLE "0:"
    INDEX 01 01:36:39
  TRACK 54 AUDIO
    TITLE "4:cjc129_1806"
    INDEX 01 01:37:30
  TRACK 55 AUDIO
    TITLE "0:"
    INDEX 01 01:38:55
  TRACK 56 AUDIO
    TITLE "6:cjc129_1807"
    INDEX 01 01:39:10
  TRACK 57 AUDIO
    TITLE "0:"
    INDEX 01 01:44:48
  TRACK 58 AUDIO
    TITLE "3:cjc129_1808"
    INDEX 01 01:46:21
  TRACK 59 AUDIO
    TITLE "0:"
    INDEX 01 01:47:44
  TRACK 60 AUDIO
    TITLE "5:cjc129_1809"
    INDEX 01 01:49:02
  TRACK 61 AUDIO
    TITLE "0:"
    INDEX 01 01:52:24
  TRACK 62 AUDIO
    TITLE "4:cjc129_1810"
    INDEX 01 01:53:14
  TRACK 63 AUDIO
    TITLE "0:"
    INDEX 01 01:54:35
  TRACK 64 AUDIO
    TITLE "6:cjc129_1811"
    INDEX 01 01:54:70
  TRACK 65 AUDIO
    TITLE "0:"
    INDEX 01 01:58:72
  TRACK 66 AUDIO
    TITLE "3:cjc129_1812"
    INDEX 01 02:00:47
  TRACK 67 AUDIO
    TITLE "0:"
    INDEX 01 02:01:64
  TRACK 68 AUDIO
    TITLE "5:cjc129_1813"
    INDEX 01 02:03:34
  TRACK 69 AUDIO
    TITLE "0:"
    INDEX 01 02:06:18
  TRACK 70 AUDIO
    TITLE "4:cjc129_1814"
    INDEX 01 02:07:04
  TRACK 71 AUDIO
    TITLE "0:"
    INDEX 01 02:08:19
  TRACK 72 AUDIO
    TITLE "6:cjc129_1815"
    INDEX 01 02:08:52
  TRACK 73 AUDIO
    TITLE "0:"
    INDEX 01 02:12:52
  TRACK 74 AUDIO
    TITLE "3:cjc129_1816"
    INDEX 01 02:14:28
  TRACK 75 AUDIO
    TITLE "0:"
    INDEX 01 02:15:35
  TRACK 76 AUDIO
    TITLE "5:cjc129_1817"
    INDEX 01 02:16:70
  TRACK 77 AUDIO
    TITLE "0:"
    INDEX 01 02:19:11
  TRACK 78 AUDIO
    TITLE "4:cjc129_1818"
    INDEX 01 02:19:72
  TRACK 79 AUDIO
    TITLE "0:"
    INDEX 01 02:21:04
  TRACK 80 AUDIO
    TITLE "6:cjc129_1819"
    INDEX 01 02:21:45
  TRACK 81 AUDIO
    TITLE "0:"
    INDEX 01 02:26:52
